<svg xmlns="http://www.w3.org/2000/svg" viewBox="0 0 489.934 489.934"><path d="M485.967 233.617c-74-91-153.9-137.2-237.7-137.2-33.2 0-66.8 7.4-100 21.9-26.1 11.5-52 27.4-76.9 47.3-42.1 33.7-66.9 67.3-67.9 68.7-4.8 6.6-4.6 15.6.5 22 73.9 91.1 153.9 137.2 237.7 137.2 33.2 0 66.8-7.4 100-21.9 26.1-11.5 52-27.4 76.9-47.3 42.1-33.7 66.9-67.3 67.9-68.7 4.8-6.6 4.6-15.6-.5-22zm-90.7 63.2c-34.8 27.7-89.6 60.7-153.6 60.7-69.1 0-136.5-37.9-200.5-112.7 10.1-11.9 28.6-31.8 53.4-51.6 34.8-27.7 89.6-60.7 153.6-60.7 69.1 0 136.5 37.9 200.5 112.7-10.1 11.9-28.6 31.9-53.4 51.6z"/><path d="M311.267 227.017c-9.9 0-18 8.1-18 18 0 26.7-21.7 48.4-48.4 48.4s-48.4-21.7-48.4-48.4 21.7-48.4 48.4-48.4c9.9 0 18-8.1 18-18s-8.1-18-18-18c-46.6 0-84.4 37.9-84.4 84.4s37.8 84.4 84.4 84.4c46.6 0 84.4-37.9 84.4-84.4 0-9.9-8.1-18-18-18z"/></svg>