<?xml version="1.0" encoding="UTF-8"?>
<svg width="32px" height="16px" viewBox="0 0 32 16" version="1.1" xmlns="http://www.w3.org/2000/svg" xmlns:xlink="http://www.w3.org/1999/xlink">
    <!-- Generator: Sketch 51.3 (57544) - http://www.bohemiancoding.com/sketch -->
    <title>Artboard 2</title>
    <desc>Created with Sketch.</desc>
    <defs>
        <linearGradient x1="25.0803744%" y1="42.7702141%" x2="139.153125%" y2="156.885512%" id="linearGradient-1">
            <stop stop-color="#FFB92D" offset="0%"></stop>
            <stop stop-color="#F59500" offset="100%"></stop>
        </linearGradient>
        <linearGradient x1="40.2235134%" y1="57.9185501%" x2="74.6092575%" y2="92.3151582%" id="linearGradient-2">
            <stop stop-color="#FFB92D" offset="0%"></stop>
            <stop stop-color="#F59500" offset="100%"></stop>
        </linearGradient>
    </defs>
    <g id="Artboard-2" stroke="none" stroke-width="1" fill="none" fill-rule="evenodd">
        <g id="cancel" fill-rule="nonzero">
            <circle id="Oval" fill="#E24C4B" cx="8" cy="8" r="8"></circle>
            <path d="M11.76775,11.76775 C11.4580834,12.0774167 10.9419239,12.0774167 10.6322572,11.76775 L8,9.13549277 L5.36774275,11.76775 C5.05807611,12.0774167 4.54191664,12.0774167 4.23224999,11.76775 C3.92258334,11.4580834 3.92258334,10.9419239 4.23224999,10.6322572 L6.86450723,8 L4.23224999,5.36774275 C3.92258334,5.05807611 3.92258334,4.54191664 4.23224999,4.23224999 C4.54191664,3.92258334 5.05807611,3.92258334 5.36774275,4.23224999 L8,6.86450723 L10.6322572,4.23224999 C10.9419239,3.92258334 11.4580834,3.92258334 11.76775,4.23224999 C12.0774167,4.54191664 12.0774167,5.05807611 11.76775,5.36774275 L9.13549277,8 L11.76775,10.6322572 C12.0774167,10.9419239 12.0774167,11.4580471 11.76775,11.76775 Z" id="Shape" fill="#FFFFFF"></path>
        </g>
        <g id="complain" transform="translate(16.000000, 0.000000)" fill-rule="nonzero">
            <path d="M13.6653125,15.9969687 L2.33459375,15.9969687 C0.60134375,15.9969687 -0.52596875,14.1729375 0.24915625,12.6226875 L5.9145,1.29190625 C6.77375,-0.42659375 9.226125,-0.42659375 10.085375,1.29190625 L15.7507187,12.6226562 C16.5259062,14.1729375 15.3985937,15.9969687 13.6653125,15.9969687 Z" id="Shape" fill="url(#linearGradient-1)"></path>
            <path d="M13.6653125,15.9969687 L2.33459375,15.9969687 C0.60134375,15.9969687 -0.52596875,14.1729375 0.24915625,12.6226875 L5.9145,1.29190625 C6.77375,-0.42659375 9.226125,-0.42659375 10.085375,1.29190625 L15.7507187,12.6226562 C16.5259062,14.1729375 15.3985937,15.9969687 13.6653125,15.9969687 Z" id="Shape" fill="url(#linearGradient-2)"></path>
            <path d="M7.1298125,12.7725625 C7.1298125,12.5545312 7.21875,12.3693437 7.39659375,12.2169062 C7.57446875,12.0644062 7.79065625,11.9879687 8.04475,11.9879687 C8.26853125,11.9879687 8.46196875,12.0644062 8.62509375,12.2169062 C8.78825,12.3693437 8.87009375,12.5545312 8.87009375,12.7725625 C8.87009375,12.9818125 8.7883125,13.1648437 8.62509375,13.3217187 C8.46196875,13.4786562 8.2685,13.5570937 8.04475,13.5570937 C7.790625,13.5570937 7.57446875,13.478625 7.39659375,13.3217187 C7.21875,13.1648437 7.1298125,12.9818437 7.1298125,12.7725625 Z M7.21540625,5.090875 C7.21540625,4.86884375 7.2909375,4.69734375 7.44209375,4.57653125 C7.5931875,4.45571875 7.788875,4.39525 8.02915625,4.39525 C8.2694375,4.39525 8.44596875,4.45815625 8.55853125,4.58384375 C8.6710625,4.70953125 8.72746875,4.8785 8.72746875,5.090875 C8.72746875,5.78678125 8.71540625,6.11003125 8.6918125,7.684875 C8.66796875,9.25978125 8.6561875,9.75603125 8.6561875,10.4516562 C8.6561875,10.5968125 8.58821875,10.7104375 8.45246875,10.7924375 C8.3165,10.8744687 8.17540625,10.9155312 8.0291875,10.9155312 C7.60084375,10.9155312 7.386625,10.7610312 7.386625,10.4516562 C7.386625,9.75603125 7.3580625,9.25978125 7.30103125,7.684875 C7.24390625,6.11 7.21540625,5.78675 7.21540625,5.090875 Z" id="Shape" fill="#000000"></path>
        </g>
    </g>
</svg>