<?xml version="1.0" encoding="UTF-8"?>
<svg width="190px" height="30px" viewBox="0 0 190 30" version="1.1" xmlns="http://www.w3.org/2000/svg" xmlns:xlink="http://www.w3.org/1999/xlink">
    <!-- Generator: Sketch 51.3 (57544) - http://www.bohemiancoding.com/sketch -->
    <title>Group 7</title>
    <desc>Created with Sketch.</desc>
    <defs></defs>
    <g id="Page-1" stroke="none" stroke-width="1" fill="none" fill-rule="evenodd">
        <g id="AppView" transform="translate(-20.000000, -15.000000)" fill="#FFFFFF">
            <g id="Group-7" transform="translate(20.000000, 15.000000)">
                <g id="Group-9" transform="translate(46.000000, 10.000000)">
                    <path d="M88.2022857,3.39028571 L92.576,3.39028571 L92.576,0 L88.2022857,0 L88.2022857,3.39028571 Z M10.4462857,19.6274286 L7.70914286,14.5251429 L6.23428571,14.5251429 L6.23428571,19.6274286 L0,19.6274286 L0,16.3171429 L1.16914286,16.3171429 L1.16914286,3.31028571 L0,3.31028571 L0,0 L6.23428571,0 L6.23428571,10.7891429 L7.67428571,10.7891429 L10.9697143,5.89942857 L15.7742857,5.89942857 L15.7742857,9.20971429 L14.9742857,9.20971429 L12.2788571,12.2234286 L15.2331429,16.3171429 L16.12,16.3171429 L16.12,19.6274286 L10.4462857,19.6274286 Z M73.736,19.6274286 L70.3874286,9.20971429 L69.4137143,9.20971429 L69.4137143,5.89942857 L76.5782857,5.89942857 L76.5782857,9.20971429 L75.3034286,9.20971429 L76.992,15.5194286 L78.0617143,15.5194286 L79.7502857,9.20971429 L78.476,9.20971429 L78.476,5.89942857 L85.1348571,5.89942857 L85.1348571,9.20971429 L84.1582857,9.20971429 L80.8897143,19.6274286 L73.736,19.6274286 Z M86.9268571,19.6274286 L86.9268571,16.3171429 L88.096,16.3171429 L88.096,9.20971429 L86.9268571,9.20971429 L86.9268571,5.89942857 L93.1605714,5.89942857 L93.1605714,16.3171429 L94.3302857,16.3171429 L94.3302857,19.6274286 L86.9268571,19.6274286 Z M22.9154286,20 C21.6011429,20 20.6525714,19.612 20.016,18.8148571 C19.3605714,17.9937143 19.028,16.8245714 19.028,15.3411429 L19.028,9.20971429 L17.8582857,9.20971429 L17.8582857,5.89942857 L24.0925714,5.89942857 L24.0925714,14.092 C24.0925714,14.8114286 24.2697143,15.3651429 24.6188571,15.7382857 C24.9777143,16.1228571 25.4948571,16.3171429 26.1571429,16.3171429 C26.8194286,16.3171429 27.3365714,16.1228571 27.696,15.7388571 C28.0457143,15.3651429 28.2228571,14.8114286 28.2228571,14.092 L28.2228571,9.20971429 L26.7874286,9.20971429 L26.7874286,5.89942857 L33.2874286,5.89942857 L33.2874286,16.3171429 L34.4565714,16.3171429 L34.4565714,19.6274286 L28.2228571,19.6274286 L28.2228571,16.5594286 L27.2868571,17.7554286 C26.1045714,19.2657143 24.6748571,20 22.9154286,20 Z M44.5474286,9.20971429 C43.8851429,9.20971429 43.3674286,9.40457143 43.0091429,9.78857143 C42.6594286,10.1611429 42.4822857,10.7148571 42.4822857,11.4348571 L42.4822857,14.092 C42.4822857,14.812 42.6594286,15.3657143 43.0097143,15.7388571 C43.3674286,16.1228571 43.8851429,16.3171429 44.5474286,16.3171429 C45.2097143,16.3171429 45.7274286,16.1228571 46.0857143,15.7382857 C46.4348571,15.3657143 46.6125714,14.812 46.6125714,14.092 L46.6125714,11.4348571 C46.6125714,10.7148571 46.4348571,10.1611429 46.0851429,9.788 C45.7274286,9.40457143 45.2097143,9.20971429 44.5474286,9.20971429 Z M47.1251429,20 C46.3262857,20 45.6114286,19.8034286 45.0005714,19.4165714 C44.3542857,19.0074286 43.8228571,18.5388571 43.4188571,18.0217143 L42.4822857,16.824 L42.4822857,19.6274286 L36.248,19.6274286 L36.248,16.3171429 L37.4171429,16.3171429 L37.4171429,3.31028571 L36.248,3.31028571 L36.248,0 L42.4822857,0 L42.4822857,8.70285714 L43.4188571,7.50514286 C43.8222857,6.98857143 44.3542857,6.51942857 45.0005714,6.11028571 C45.6114286,5.72342857 46.3268571,5.52685714 47.1251429,5.52685714 C48.7622857,5.52685714 49.9542857,6.11257143 50.7708571,7.31714286 C51.6188571,8.56857143 52.0491429,10.4017143 52.0491429,12.7634286 C52.0491429,15.1257143 51.6188571,16.9577143 50.7708571,18.2091429 C49.9542857,19.4142857 48.7622857,20 47.1251429,20 Z M61.236,8.25371429 C60.5737143,8.25371429 60.0565714,8.448 59.6977143,8.83142857 C59.3485714,9.20457143 59.1714286,9.75885714 59.1714286,10.4777143 L59.1714286,11.3205714 L63.3017143,11.3205714 L63.3017143,10.4777143 C63.3017143,9.73828571 63.1222857,9.17771429 62.7697143,8.812 C62.4102857,8.44114286 61.8942857,8.25371429 61.236,8.25371429 Z M61.236,20 C58.8691429,20 57.0045714,19.3811429 55.6937143,18.16 C54.3937143,16.9497143 53.7342857,15.1337143 53.7342857,12.7634286 C53.7342857,10.3931429 54.3937143,8.57714286 55.6937143,7.36685714 C57.0045714,6.14571429 58.8691429,5.52685714 61.236,5.52685714 C63.5622857,5.52685714 65.2474286,6.12228571 66.2451429,7.296 C67.2645714,8.49485714 67.7817143,10.0131429 67.7817143,11.8062857 L67.7817143,13.1965714 L59.1714286,13.1965714 L59.1714286,13.8794286 C59.1714286,14.7 59.4348571,15.3245714 59.9542857,15.7377143 C60.444,16.128 61.1851429,16.3171429 62.22,16.3171429 C63.3234286,16.3171429 64.3891429,16.2342857 65.3868571,16.0708571 C66.0937143,15.9548571 66.744,15.8148571 67.3302857,15.6514286 L67.3302857,18.8708571 C66.7657143,19.132 65.9885714,19.3771429 65.0125714,19.6011429 C63.8594286,19.8657143 62.5891429,20 61.236,20 Z M103.517143,9.20971429 C102.855429,9.20971429 102.337714,9.40457143 101.978857,9.788 C101.629143,10.1617143 101.452,10.7154286 101.452,11.4348571 L101.452,14.092 C101.452,14.8114286 101.629143,15.3651429 101.978286,15.7382857 C102.337714,16.1228571 102.855429,16.3171429 103.517143,16.3171429 C104.179429,16.3171429 104.697143,16.1228571 105.056,15.7382857 C105.405143,15.3651429 105.581714,14.8114286 105.581714,14.092 L105.581714,11.4348571 C105.581714,10.7154286 105.405143,10.1617143 105.056,9.78857143 C104.697143,9.40457143 104.179429,9.20971429 103.517143,9.20971429 Z M103.517143,20 C101.150286,20 99.2857143,19.3811429 97.9748571,18.16 C96.6748571,16.9502857 96.0154286,15.1342857 96.0154286,12.7634286 C96.0154286,10.3925714 96.6748571,8.57657143 97.9748571,7.36742857 C99.2857143,6.14571429 101.150286,5.52685714 103.517143,5.52685714 C105.917143,5.52685714 107.789143,6.15371429 109.081143,7.38857143 C110.366857,8.61714286 111.019429,10.4257143 111.019429,12.7634286 C111.019429,15.1337143 110.36,16.9497143 109.06,18.16 C107.749143,19.3811429 105.884,20 103.517143,20 Z M117.814857,20 C116.500571,20 115.551429,19.612 114.914857,18.8148571 C114.259429,17.9925714 113.926857,16.824 113.926857,15.3411429 L113.926857,9.20971429 L112.757714,9.20971429 L112.757714,5.89942857 L118.991429,5.89942857 L118.991429,14.092 C118.991429,14.8114286 119.168571,15.3651429 119.517714,15.7382857 C119.877143,16.1228571 120.394857,16.3171429 121.056571,16.3171429 C121.718857,16.3171429 122.236571,16.1228571 122.595429,15.7382857 C122.944571,15.3651429 123.121714,14.8114286 123.121714,14.092 L123.121714,9.20971429 L121.686857,9.20971429 L121.686857,5.89942857 L128.186286,5.89942857 L128.186286,16.3171429 L129.356,16.3171429 L129.356,19.6274286 L123.121714,19.6274286 L123.121714,16.5594286 L122.185714,17.7554286 C121.003429,19.2657143 119.574286,20 117.814857,20 Z M137.081143,20 C135.044,20 133.050286,19.6914286 131.147429,19.0817143 L131.147429,16.0508571 L134.420571,16.0508571 C134.494286,16.6554286 134.878857,17.5925714 136.549714,17.5925714 C138.317714,17.5925714 138.508571,16.5382857 138.508571,16.0851429 C138.508571,15.5514286 138.283429,15.124 137.857143,14.848 C137.52,14.6308571 136.983429,14.4582857 136.217143,14.3205714 L134.888571,14.0817143 C132.370857,13.6325714 131.147429,12.2542857 131.147429,9.86685714 C131.147429,8.49028571 131.650857,7.45542857 132.685714,6.70285714 C133.757714,5.92285714 135.246286,5.52685714 137.108,5.52685714 C139.089714,5.52685714 140.797714,5.83828571 142.191429,6.45371429 L142.191429,9.28971429 L139.182857,9.28971429 C139.114857,8.79542857 138.858286,8.49485714 138.638857,8.324 C138.307429,8.06514286 137.845143,7.93428571 137.267429,7.93428571 C135.595429,7.93428571 135.414857,8.89542857 135.414857,9.30857143 C135.414857,9.79085714 135.626857,10.1822857 136.027429,10.44 C136.334857,10.6377143 136.820571,10.804 137.555429,10.9634286 L139.081714,11.2577143 C140.529714,11.5342857 141.562286,12.0371429 142.152,12.7514286 C142.750857,13.4765714 143.041714,14.3931429 143.041714,15.5537143 C143.041714,17.0062857 142.557714,18.0777143 141.562286,18.8297143 C140.534857,19.6062857 139.027429,20 137.081143,20 Z" id="Fill-1"></path>
                </g>
                <g id="Group-14">
                    <path d="M0,20.1080287 C0.302463992,19.3894854 0.849440569,19.16013 1.6065632,19.1612947 C10.6027973,19.1755627 19.5991276,19.1695449 28.5953617,19.1689626 C29.2980947,19.1689626 29.796265,19.5034351 29.9528879,20.079881 C30.0988253,20.616726 29.9015787,21.2081193 29.4186182,21.4626135 C29.1657306,21.5957813 28.8480568,21.6583857 28.5592624,21.6598416 C25.6126932,21.6745949 22.6660278,21.6711978 19.7193623,21.6711007 C13.6576643,21.6708095 7.5960626,21.6624623 1.5343646,21.6774097 C0.776568118,21.6792539 0.260011217,21.417383 0,20.6902983 L0,20.1080287 Z" id="Fill-1"></path>
                    <path d="M35.9953983,7.92398095 C35.3555635,8.60964148 34.7401755,9.3204199 34.066978,9.97166319 C33.6448634,10.3800684 33.0362822,10.2957989 32.5856943,9.84847055 C31.5751311,8.84538523 30.5706078,7.83626011 29.5637835,6.82953175 C28.4891794,5.75502345 27.4152463,4.67993995 26.3400669,3.60610274 C25.6075261,2.87452059 25.6030202,2.34905843 26.3259741,1.62591281 C26.6389888,1.31280217 26.942896,0.989816943 27.2680862,0.689840458 C27.5276057,0.450549533 27.8131058,0.239348447 28.0871016,0.015684293 L28.6623202,0.015684293 C28.9481079,0.243854326 29.2578631,0.44776931 29.5157528,0.704029183 C31.4613337,2.6363801 33.3997244,4.57601712 35.3314043,6.52217329 C35.5790359,6.77162641 35.7752813,7.07198637 35.9953983,7.34885825 L35.9953983,7.92398095 Z" id="Fill-3"></path>
                    <path d="M11.5383165,30 L2.32258065,30 L2.32258065,22.8387097 L27.483871,22.8387097 L27.483871,29.9853047 L18.3165428,29.9853047 C18.2890863,29.3918475 18.3080284,28.7945948 18.2257544,28.2122321 C17.9728099,26.4215445 16.4236677,25.2189616 14.5799657,25.3410009 C12.9450099,25.4492207 11.5867242,26.9254674 11.5400385,28.6531889 C11.5282714,29.0885984 11.5383165,29.5245919 11.5383165,30" id="Fill-6"></path>
                    <path d="M25.2004962,16.9532921 L24.4401794,17.6664935 L23.8830042,16.7822209 C22.6906629,14.8896659 21.217573,13.4021317 19.3797884,12.2345193 L18.4569581,11.6481416 L19.2323545,10.8740028 C19.4082186,10.698468 19.8317908,10.2726819 20.3530439,9.7482121 C18.7698828,8.9823212 16.9503473,8.52111768 14.9273819,8.51616893 C8.5133848,8.50035236 3.854667,13.1894328 2.70967742,18 L27.0967742,18 C26.9292663,17.2834025 26.6759874,16.5563253 26.3424123,15.8397277 C25.812803,16.3615776 25.3909597,16.7746522 25.2004962,16.9532921" id="Fill-8"></path>
                    <path d="M31.9354839,10.7034936 C31.6075342,11.0278958 31.2817945,11.397599 30.907338,11.7087564 C30.4343909,12.101782 29.9315603,12.0106999 29.4493887,11.6565449 C28.8328855,12.2282797 25.3452609,15.66867 24.7097322,16.2580645 C23.4716331,14.3151068 21.8936694,12.722561 19.9354839,11.4924243 C20.5423782,10.893432 24.0191448,7.4277038 24.6038428,6.85059431 C24.0663242,6.02135333 24.1100445,5.64915465 24.7804532,4.97741187 C25.0241334,4.73334245 25.263874,4.48514602 25.4865108,4.25806452 C27.6495568,6.41984969 29.7819506,8.55111418 31.9354839,10.7034936" id="Fill-10"></path>
                    <path d="M16.2493694,30 L13.7637824,30 C13.7637824,29.4645443 13.7057011,28.9330389 13.7789426,28.4203959 C13.8644896,27.82144 14.4650903,27.4444879 15.0991616,27.4871506 C15.6990731,27.5275418 16.2037903,28.0159896 16.2438566,28.6396345 C16.2722082,29.0793955 16.2493694,29.5224154 16.2493694,30" id="Fill-12"></path>
                </g>
            </g>
        </g>
    </g>
</svg>