<?xml version="1.0" encoding="UTF-8"?>
<svg width="206px" height="26px" viewBox="0 0 206 26" version="1.1" xmlns="http://www.w3.org/2000/svg" xmlns:xlink="http://www.w3.org/1999/xlink">
    <!-- Generator: Sketch 51.3 (57544) - http://www.bohemiancoding.com/sketch -->
    <title>Group</title>
    <desc>Created with Sketch.</desc>
    <defs></defs>
    <g id="Page-1" stroke="none" stroke-width="1" fill="none" fill-rule="evenodd">
        <g id="AppView" transform="translate(-25.000000, -18.000000)" fill="#FFFFFF">
            <g id="Group" transform="translate(25.000000, 18.000000)">
                <path d="M79.8113333,18.564 L80.9293333,18.564 L80.9293333,22.828 L74.5593333,22.828 L71.8813333,17.836 L71.2573333,17.836 L71.2573333,22.828 L64.1333333,22.828 L64.1333333,18.564 L65.2773333,18.564 L65.2773333,6.864 L64.1333333,6.864 L64.1333333,2.6 L71.2573333,2.6 L71.2573333,13.156 L71.8813333,13.156 L75.1053333,8.372 L80.5913333,8.372 L80.5913333,12.636 L79.5253333,12.636 L77.3153333,15.106 L79.8113333,18.564 Z M98.8693333,18.564 L98.8693333,22.828 L91.7453333,22.828 L91.7453333,20.8 C90.4973271,22.3946746 88.9373427,23.192 87.0653333,23.192 C85.6266595,23.192 84.5476703,22.7413378 83.8283333,21.84 C83.1089964,20.9386622 82.7493333,19.6993412 82.7493333,18.122 L82.7493333,12.636 L81.6053333,12.636 L81.6053333,8.372 L88.7293333,8.372 L88.7293333,16.9 C88.7293333,17.4720029 88.8549987,17.892332 89.1063333,18.161 C89.3576679,18.429668 89.7346642,18.564 90.2373333,18.564 C90.7400025,18.564 91.1169987,18.429668 91.3683333,18.161 C91.6196679,17.892332 91.7453333,17.4720029 91.7453333,16.9 L91.7453333,12.636 L90.3413333,12.636 L90.3413333,8.372 L97.7253333,8.372 L97.7253333,18.564 L98.8693333,18.564 Z M110.751333,23.192 C109.867329,23.192 109.083003,22.9753355 108.398333,22.542 C107.713663,22.1086645 107.154669,21.6146694 106.721333,21.06 L106.721333,22.828 L99.5973333,22.828 L99.5973333,18.564 L100.741333,18.564 L100.741333,6.864 L99.5973333,6.864 L99.5973333,2.6 L106.721333,2.6 L106.721333,10.14 C107.154669,9.58533056 107.713663,9.0913355 108.398333,8.658 C109.083003,8.2246645 109.867329,8.008 110.751333,8.008 C112.519342,8.008 113.849662,8.66666008 114.742333,9.984 C115.635004,11.3013399 116.081333,13.1733212 116.081333,15.6 C116.081333,18.0266788 115.635004,19.8986601 114.742333,21.216 C113.849662,22.5333399 112.519342,23.192 110.751333,23.192 Z M108.229333,18.564 C108.732003,18.564 109.108999,18.429668 109.360333,18.161 C109.611668,17.892332 109.737333,17.4720029 109.737333,16.9 L109.737333,14.3 C109.737333,13.7279971 109.611668,13.307668 109.360333,13.039 C109.108999,12.770332 108.732003,12.636 108.229333,12.636 C107.726664,12.636 107.349668,12.770332 107.098333,13.039 C106.846999,13.307668 106.721333,13.7279971 106.721333,14.3 L106.721333,16.9 C106.721333,17.4720029 106.846999,17.892332 107.098333,18.161 C107.349668,18.429668 107.726664,18.564 108.229333,18.564 Z M124.557333,23.192 C122.095988,23.192 120.172007,22.5463398 118.785333,21.255 C117.39866,19.9636602 116.705333,18.0786791 116.705333,15.6 C116.705333,13.1213209 117.39866,11.2363398 118.785333,9.945 C120.172007,8.65366021 122.095988,8.008 124.557333,8.008 C127.001346,8.008 128.764995,8.64499363 129.848333,9.919 C130.931672,11.1930064 131.473333,12.7746572 131.473333,14.664 L131.473333,16.536 L123.049333,16.536 L123.049333,16.692 C123.049333,17.3333365 123.239998,17.8056652 123.621333,18.109 C124.002669,18.4123349 124.635329,18.564 125.519333,18.564 C126.576672,18.564 127.581995,18.4860008 128.535333,18.33 C129.488671,18.1739992 130.320663,17.9746679 131.031333,17.732 L131.031333,21.892 C130.424664,22.221335 129.536339,22.520332 128.366333,22.789 C127.196327,23.057668 125.926674,23.192 124.557333,23.192 Z M126.065333,13.676 L126.065333,13.364 C126.065333,12.7746637 125.939668,12.3500013 125.688333,12.09 C125.436999,11.8299987 125.060003,11.7 124.557333,11.7 C124.054664,11.7 123.677668,11.834332 123.426333,12.103 C123.174999,12.371668 123.049333,12.7919971 123.049333,13.364 L123.049333,13.676 L126.065333,13.676 Z M136.413333,22.828 L133.137333,12.636 L132.045333,12.636 L132.045333,8.372 L140.079333,8.372 L140.079333,12.636 L138.987333,12.636 L140.365333,17.784 L140.625333,17.784 L142.003333,12.636 L140.911333,12.636 L140.911333,8.372 L148.451333,8.372 L148.451333,12.636 L147.359333,12.636 L144.161333,22.828 L136.413333,22.828 Z M150.427333,6.942 L150.427333,2.6 L155.731333,2.6 L155.731333,6.942 L150.427333,6.942 Z M149.179333,22.828 L149.179333,18.564 L150.323333,18.564 L150.323333,12.636 L149.179333,12.636 L149.179333,8.372 L156.303333,8.372 L156.303333,18.564 L157.447333,18.564 L157.447333,22.828 L149.179333,22.828 Z M165.923333,23.192 C163.461988,23.192 161.538007,22.5463398 160.151333,21.255 C158.76466,19.9636602 158.071333,18.0786791 158.071333,15.6 C158.071333,13.1213209 158.76466,11.2363398 160.151333,9.945 C161.538007,8.65366021 163.461988,8.008 165.923333,8.008 C168.419346,8.008 170.351993,8.66232679 171.721333,9.971 C173.090674,11.2796732 173.775333,13.1559878 173.775333,15.6 C173.775333,18.0786791 173.082007,19.9636602 171.695333,21.255 C170.30866,22.5463398 168.384679,23.192 165.923333,23.192 Z M165.923333,18.564 C166.426003,18.564 166.802999,18.429668 167.054333,18.161 C167.305668,17.892332 167.431333,17.4720029 167.431333,16.9 L167.431333,14.3 C167.431333,13.7279971 167.305668,13.307668 167.054333,13.039 C166.802999,12.770332 166.426003,12.636 165.923333,12.636 C165.420664,12.636 165.043668,12.770332 164.792333,13.039 C164.540999,13.307668 164.415333,13.7279971 164.415333,14.3 L164.415333,16.9 C164.415333,17.4720029 164.540999,17.892332 164.792333,18.161 C165.043668,18.429668 165.420664,18.564 165.923333,18.564 Z M191.715333,18.564 L191.715333,22.828 L184.591333,22.828 L184.591333,20.8 C183.343327,22.3946746 181.783343,23.192 179.911333,23.192 C178.472659,23.192 177.39367,22.7413378 176.674333,21.84 C175.954996,20.9386622 175.595333,19.6993412 175.595333,18.122 L175.595333,12.636 L174.451333,12.636 L174.451333,8.372 L181.575333,8.372 L181.575333,16.9 C181.575333,17.4720029 181.700999,17.892332 181.952333,18.161 C182.203668,18.429668 182.580664,18.564 183.083333,18.564 C183.586003,18.564 183.962999,18.429668 184.214333,18.161 C184.465668,17.892332 184.591333,17.4720029 184.591333,16.9 L184.591333,12.636 L183.187333,12.636 L183.187333,8.372 L190.571333,8.372 L190.571333,18.564 L191.715333,18.564 Z M198.761333,23.192 C196.577322,23.192 194.471343,22.8453368 192.443333,22.152 L192.443333,18.304 L196.655333,18.304 L196.655333,18.564 C196.655333,19.3960042 197.183995,19.812 198.241333,19.812 C199.177338,19.812 199.645333,19.4913365 199.645333,18.85 C199.645333,18.5033316 199.511001,18.2433342 199.242333,18.07 C198.973665,17.8966658 198.501337,17.7493339 197.825333,17.628 L196.525333,17.394 C193.803986,16.9086642 192.443333,15.366013 192.443333,12.766 C192.443333,11.2579925 193.015328,10.0880042 194.159333,9.256 C195.303339,8.42399584 196.84599,8.008 198.787333,8.008 C200.954011,8.008 202.782659,8.37199636 204.273333,9.1 L204.273333,12.714 L200.321333,12.714 L200.321333,12.454 C200.321333,12.1073316 200.204335,11.8430009 199.970333,11.661 C199.736332,11.4789991 199.394002,11.388 198.943333,11.388 C198.076662,11.388 197.643333,11.6653306 197.643333,12.22 C197.643333,12.5146681 197.764665,12.7399992 198.007333,12.896 C198.250001,13.0520008 198.691997,13.1993326 199.333333,13.338 L200.815333,13.624 C202.358008,13.9186681 203.458663,14.4646627 204.117333,15.262 C204.776003,16.0593373 205.105333,17.0819938 205.105333,18.33 C205.105333,19.9073412 204.555006,21.1119958 203.454333,21.944 C202.353661,22.7760042 200.789343,23.192 198.761333,23.192 Z" id="kubevious"></path>
                <g id="yatch" fill-rule="nonzero">
                    <path d="M14.7814483,22.0249138 L14.7849224,22.0258103 C16.8237931,22.5945603 19.3512845,23.2262931 21.9883793,23.4987328 C21.7487759,23.4239828 21.510069,23.3473276 21.2732672,23.2671983 C18.6486121,22.4687069 16.1780517,21.9806466 13.7828017,21.7891207 C14.1162069,21.8587155 14.4483793,21.935819 14.7778621,22.0241293 L14.7814483,22.0249138 Z" id="Shape"></path>
                    <path d="M24.5289828,24.3553879 C21.2325862,24.3553879 17.8894569,23.6382586 14.5918276,22.7183966 C13.1163276,22.3229052 11.5993621,22.124319 10.0868793,22.124431 C6.59514655,22.1245431 3.13042241,23.1834828 0.278603448,25.3228793 C3.04166379,24.1557931 5.73344828,23.6222328 8.44361207,23.6223448 C10.8083793,23.6224569 13.1872672,24.0287069 15.6375431,24.7749741 C17.8453017,25.5235948 20.2987155,25.9502414 22.748431,25.9502414 C24.9232414,25.9502414 27.0945776,25.6130259 29.0873879,24.8663103 C27.8239224,24.7657845 26.5585517,24.5893879 25.3089828,24.3411552 C25.049319,24.3504569 24.789319,24.3553879 24.5289828,24.3553879 Z" id="Shape"></path>
                    <path d="M6.24549138,18.737819 C8.66203448,17.96275 11.197819,17.5696121 13.78325,17.5696121 C16.0054655,17.5696121 18.2231983,17.862 20.3748103,18.4387069 L20.3798534,18.4400517 L20.3847845,18.4415086 C24.1624052,19.4952931 29.1327759,20.7049655 34.0775948,20.7049655 C36.7683707,20.7049655 39.2607845,20.3527328 41.6004483,19.6384052 L50.2638276,2.99325 C50.2638276,2.99325 32.0686466,1.15800862 0.278603448,16.7750431 L0.278603448,21.3301983 L0.742232759,21.3301983 C2.44142241,20.2366293 4.28585345,19.3665259 6.24549138,18.737819 Z M26.8129483,9.43889655 C27.5556293,9.43889655 28.1577759,10.0410431 28.1577759,10.7837241 C28.1577759,11.5264052 27.5556293,12.1285517 26.8129483,12.1285517 C26.0702672,12.1285517 25.4681207,11.5264052 25.4681207,10.7837241 C25.4681207,10.040931 26.0702672,9.43889655 26.8129483,9.43889655 Z M22.5543276,10.7837241 C23.2970086,10.7837241 23.8991552,11.3858707 23.8991552,12.1285517 C23.8991552,12.8712328 23.2970086,13.4733793 22.5543276,13.4733793 C21.8116466,13.4733793 21.2095,12.8712328 21.2095,12.1285517 C21.2095,11.3858707 21.8116466,10.7837241 22.5543276,10.7837241 Z M18.4638103,12.1285517 C19.2064914,12.1285517 19.8086379,12.7306983 19.8086379,13.4733793 C19.8086379,14.2160603 19.2064914,14.8182069 18.4638103,14.8182069 C17.7211293,14.8182069 17.1189828,14.2160603 17.1189828,13.4733793 C17.1189828,12.7306983 17.7211293,12.1285517 18.4638103,12.1285517 Z" id="Shape"></path>
                    <path d="M20.1133534,19.4148276 C18.0403017,18.8591897 15.9081897,18.58025 13.7831379,18.58025 C8.87586207,18.5801379 4.00758621,20.0683017 0,23.075 C3.88274138,21.4347586 7.66518103,20.6850172 11.4738448,20.6852414 C14.7965776,20.6853534 18.1395948,21.2563448 21.5826897,22.3049741 C24.6852069,23.3569655 28.1328966,23.9566466 31.5752069,23.9566466 C37.2738017,23.9566466 42.9561466,22.3122586 47.0232414,18.3531983 C42.8388103,20.8023534 38.4873966,21.7153793 34.0775948,21.7153793 C29.4448879,21.7153793 24.7478534,20.7076552 20.1133534,19.4148276 Z" id="Shape"></path>
                    <path d="M10.8230603,2.79175 L11.2331207,4.14117241 C11.9865603,3.82323276 14.0606207,2.99313793 16.404319,2.44422414 C16.8559569,2.33865517 17.3082672,2.61893966 17.4143966,3.07091379 C17.5201897,3.52288793 17.239569,3.97508621 16.7875948,4.08099138 C14.3726207,4.64660345 12.2106983,5.54999138 11.7249914,5.75933621 L12.9157241,9.67693103 C12.9157241,9.67693103 23.4245431,4.73267241 35.7649052,2.9267931 L23.8671034,0.266612069 C23.8671034,0.266612069 14.9990862,-0.846568966 7.10001724,2.80060345 C7.10001724,2.80060345 8.77869828,3.31903448 10.8230603,2.79175 Z" id="Shape"></path>
                </g>
            </g>
        </g>
    </g>
</svg>