<?xml version="1.0" encoding="UTF-8"?>
<svg width="189px" height="40px" viewBox="0 0 189 40" version="1.1" xmlns="http://www.w3.org/2000/svg" xmlns:xlink="http://www.w3.org/1999/xlink">
    <!-- Generator: Sketch 51.3 (57544) - http://www.bohemiancoding.com/sketch -->
    <title>Group 9</title>
    <desc>Created with Sketch.</desc>
    <defs></defs>
    <g id="Page-1" stroke="none" stroke-width="1" fill="none" fill-rule="evenodd">
        <g id="AppView" transform="translate(-26.000000, -10.000000)" fill="#FFFFFF">
            <g id="Group-9" transform="translate(26.000000, 10.000000)">
                <path d="M133.202286,13.3902857 L137.576,13.3902857 L137.576,10 L133.202286,10 L133.202286,13.3902857 Z M55.4462857,29.6274286 L52.7091429,24.5251429 L51.2342857,24.5251429 L51.2342857,29.6274286 L45,29.6274286 L45,26.3171429 L46.1691429,26.3171429 L46.1691429,13.3102857 L45,13.3102857 L45,10 L51.2342857,10 L51.2342857,20.7891429 L52.6742857,20.7891429 L55.9697143,15.8994286 L60.7742857,15.8994286 L60.7742857,19.2097143 L59.9742857,19.2097143 L57.2788571,22.2234286 L60.2331429,26.3171429 L61.12,26.3171429 L61.12,29.6274286 L55.4462857,29.6274286 Z M118.736,29.6274286 L115.387429,19.2097143 L114.413714,19.2097143 L114.413714,15.8994286 L121.578286,15.8994286 L121.578286,19.2097143 L120.303429,19.2097143 L121.992,25.5194286 L123.061714,25.5194286 L124.750286,19.2097143 L123.476,19.2097143 L123.476,15.8994286 L130.134857,15.8994286 L130.134857,19.2097143 L129.158286,19.2097143 L125.889714,29.6274286 L118.736,29.6274286 Z M131.926857,29.6274286 L131.926857,26.3171429 L133.096,26.3171429 L133.096,19.2097143 L131.926857,19.2097143 L131.926857,15.8994286 L138.160571,15.8994286 L138.160571,26.3171429 L139.330286,26.3171429 L139.330286,29.6274286 L131.926857,29.6274286 Z M67.9154286,30 C66.6011429,30 65.6525714,29.612 65.016,28.8148571 C64.3605714,27.9937143 64.028,26.8245714 64.028,25.3411429 L64.028,19.2097143 L62.8582857,19.2097143 L62.8582857,15.8994286 L69.0925714,15.8994286 L69.0925714,24.092 C69.0925714,24.8114286 69.2697143,25.3651429 69.6188571,25.7382857 C69.9777143,26.1228571 70.4948571,26.3171429 71.1571429,26.3171429 C71.8194286,26.3171429 72.3365714,26.1228571 72.696,25.7388571 C73.0457143,25.3651429 73.2228571,24.8114286 73.2228571,24.092 L73.2228571,19.2097143 L71.7874286,19.2097143 L71.7874286,15.8994286 L78.2874286,15.8994286 L78.2874286,26.3171429 L79.4565714,26.3171429 L79.4565714,29.6274286 L73.2228571,29.6274286 L73.2228571,26.5594286 L72.2868571,27.7554286 C71.1045714,29.2657143 69.6748571,30 67.9154286,30 Z M89.5474286,19.2097143 C88.8851429,19.2097143 88.3674286,19.4045714 88.0091429,19.7885714 C87.6594286,20.1611429 87.4822857,20.7148571 87.4822857,21.4348571 L87.4822857,24.092 C87.4822857,24.812 87.6594286,25.3657143 88.0097143,25.7388571 C88.3674286,26.1228571 88.8851429,26.3171429 89.5474286,26.3171429 C90.2097143,26.3171429 90.7274286,26.1228571 91.0857143,25.7382857 C91.4348571,25.3657143 91.6125714,24.812 91.6125714,24.092 L91.6125714,21.4348571 C91.6125714,20.7148571 91.4348571,20.1611429 91.0851429,19.788 C90.7274286,19.4045714 90.2097143,19.2097143 89.5474286,19.2097143 Z M92.1251429,30 C91.3262857,30 90.6114286,29.8034286 90.0005714,29.4165714 C89.3542857,29.0074286 88.8228571,28.5388571 88.4188571,28.0217143 L87.4822857,26.824 L87.4822857,29.6274286 L81.248,29.6274286 L81.248,26.3171429 L82.4171429,26.3171429 L82.4171429,13.3102857 L81.248,13.3102857 L81.248,10 L87.4822857,10 L87.4822857,18.7028571 L88.4188571,17.5051429 C88.8222857,16.9885714 89.3542857,16.5194286 90.0005714,16.1102857 C90.6114286,15.7234286 91.3268571,15.5268571 92.1251429,15.5268571 C93.7622857,15.5268571 94.9542857,16.1125714 95.7708571,17.3171429 C96.6188571,18.5685714 97.0491429,20.4017143 97.0491429,22.7634286 C97.0491429,25.1257143 96.6188571,26.9577143 95.7708571,28.2091429 C94.9542857,29.4142857 93.7622857,30 92.1251429,30 Z M106.236,18.2537143 C105.573714,18.2537143 105.056571,18.448 104.697714,18.8314286 C104.348571,19.2045714 104.171429,19.7588571 104.171429,20.4777143 L104.171429,21.3205714 L108.301714,21.3205714 L108.301714,20.4777143 C108.301714,19.7382857 108.122286,19.1777143 107.769714,18.812 C107.410286,18.4411429 106.894286,18.2537143 106.236,18.2537143 Z M106.236,30 C103.869143,30 102.004571,29.3811429 100.693714,28.16 C99.3937143,26.9497143 98.7342857,25.1337143 98.7342857,22.7634286 C98.7342857,20.3931429 99.3937143,18.5771429 100.693714,17.3668571 C102.004571,16.1457143 103.869143,15.5268571 106.236,15.5268571 C108.562286,15.5268571 110.247429,16.1222857 111.245143,17.296 C112.264571,18.4948571 112.781714,20.0131429 112.781714,21.8062857 L112.781714,23.1965714 L104.171429,23.1965714 L104.171429,23.8794286 C104.171429,24.7 104.434857,25.3245714 104.954286,25.7377143 C105.444,26.128 106.185143,26.3171429 107.22,26.3171429 C108.323429,26.3171429 109.389143,26.2342857 110.386857,26.0708571 C111.093714,25.9548571 111.744,25.8148571 112.330286,25.6514286 L112.330286,28.8708571 C111.765714,29.132 110.988571,29.3771429 110.012571,29.6011429 C108.859429,29.8657143 107.589143,30 106.236,30 Z M148.517143,19.2097143 C147.855429,19.2097143 147.337714,19.4045714 146.978857,19.788 C146.629143,20.1617143 146.452,20.7154286 146.452,21.4348571 L146.452,24.092 C146.452,24.8114286 146.629143,25.3651429 146.978286,25.7382857 C147.337714,26.1228571 147.855429,26.3171429 148.517143,26.3171429 C149.179429,26.3171429 149.697143,26.1228571 150.056,25.7382857 C150.405143,25.3651429 150.581714,24.8114286 150.581714,24.092 L150.581714,21.4348571 C150.581714,20.7154286 150.405143,20.1617143 150.056,19.7885714 C149.697143,19.4045714 149.179429,19.2097143 148.517143,19.2097143 Z M148.517143,30 C146.150286,30 144.285714,29.3811429 142.974857,28.16 C141.674857,26.9502857 141.015429,25.1342857 141.015429,22.7634286 C141.015429,20.3925714 141.674857,18.5765714 142.974857,17.3674286 C144.285714,16.1457143 146.150286,15.5268571 148.517143,15.5268571 C150.917143,15.5268571 152.789143,16.1537143 154.081143,17.3885714 C155.366857,18.6171429 156.019429,20.4257143 156.019429,22.7634286 C156.019429,25.1337143 155.36,26.9497143 154.06,28.16 C152.749143,29.3811429 150.884,30 148.517143,30 Z M162.814857,30 C161.500571,30 160.551429,29.612 159.914857,28.8148571 C159.259429,27.9925714 158.926857,26.824 158.926857,25.3411429 L158.926857,19.2097143 L157.757714,19.2097143 L157.757714,15.8994286 L163.991429,15.8994286 L163.991429,24.092 C163.991429,24.8114286 164.168571,25.3651429 164.517714,25.7382857 C164.877143,26.1228571 165.394857,26.3171429 166.056571,26.3171429 C166.718857,26.3171429 167.236571,26.1228571 167.595429,25.7382857 C167.944571,25.3651429 168.121714,24.8114286 168.121714,24.092 L168.121714,19.2097143 L166.686857,19.2097143 L166.686857,15.8994286 L173.186286,15.8994286 L173.186286,26.3171429 L174.356,26.3171429 L174.356,29.6274286 L168.121714,29.6274286 L168.121714,26.5594286 L167.185714,27.7554286 C166.003429,29.2657143 164.574286,30 162.814857,30 Z M182.081143,30 C180.044,30 178.050286,29.6914286 176.147429,29.0817143 L176.147429,26.0508571 L179.420571,26.0508571 C179.494286,26.6554286 179.878857,27.5925714 181.549714,27.5925714 C183.317714,27.5925714 183.508571,26.5382857 183.508571,26.0851429 C183.508571,25.5514286 183.283429,25.124 182.857143,24.848 C182.52,24.6308571 181.983429,24.4582857 181.217143,24.3205714 L179.888571,24.0817143 C177.370857,23.6325714 176.147429,22.2542857 176.147429,19.8668571 C176.147429,18.4902857 176.650857,17.4554286 177.685714,16.7028571 C178.757714,15.9228571 180.246286,15.5268571 182.108,15.5268571 C184.089714,15.5268571 185.797714,15.8382857 187.191429,16.4537143 L187.191429,19.2897143 L184.182857,19.2897143 C184.114857,18.7954286 183.858286,18.4948571 183.638857,18.324 C183.307429,18.0651429 182.845143,17.9342857 182.267429,17.9342857 C180.595429,17.9342857 180.414857,18.8954286 180.414857,19.3085714 C180.414857,19.7908571 180.626857,20.1822857 181.027429,20.44 C181.334857,20.6377143 181.820571,20.804 182.555429,20.9634286 L184.081714,21.2577143 C185.529714,21.5342857 186.562286,22.0371429 187.152,22.7514286 C187.750857,23.4765714 188.041714,24.3931429 188.041714,25.5537143 C188.041714,27.0062857 187.557714,28.0777143 186.562286,28.8297143 C185.534857,29.6062857 184.027429,30 182.081143,30 Z" id="Fill-1"></path>
                <g id="Group-7">
                    <path d="M15.1339683,36.4683175 C20.44,35.9819683 24.8571429,32.5184762 26.735873,27.7457778 L30.2679365,27.7457778 L30.2679365,25.223873 L17.6565079,25.223873 L17.6565079,27.7451429 L21.0634921,27.7451429 C19.4704762,30.0206984 16.8565079,31.5292698 13.8730159,31.5292698 C9.00571429,31.5292698 5.04444444,27.5686349 5.04444444,22.7013333 C5.04444444,20.6010159 5.78539683,18.6740317 7.01460317,17.1572063 L3.44634921,13.5889524 C1.30984127,16.0295873 0,19.2105397 0,22.7013333 C0,29.9248254 5.55174603,35.8702222 12.6114286,36.5102222" id="Fill-3"></path>
                    <polygon id="Fill-4" points="13.0445079 19.6193016 2.34355556 8.91834921 9.47752381 1.78374603 20.1784762 12.4853333"></polygon>
                    <polygon id="Fill-5" points="2.34368254 5.35079365 0.560190476 3.56730159 4.1271746 0.000317460317 5.91066667 1.78380952"></polygon>
                    <path d="M18.3952381,21.4029841 C19.38,22.387746 20.9774603,22.387746 21.9622222,21.4029841 C22.9469841,20.4175873 22.9469841,18.8207619 21.9622222,17.8353651 L20.1787302,16.0525079 L16.611746,19.6194921 L18.3952381,21.4029841 Z" id="Fill-6"></path>
                    <polygon id="Fill-7" points="7.49396825 39.6663492 19.9542857 39.6663492 19.9542857 37.2853968 7.49396825 37.2853968"></polygon>
                    <polygon id="Fill-8" points="12.6234921 39.428254 14.8247619 39.428254 14.8247619 35.7546032 12.6234921 35.7546032"></polygon>
                </g>
            </g>
        </g>
    </g>
</svg>