<?xml version="1.0" encoding="UTF-8"?>
<svg width="16px" height="16px" viewBox="0 0 16 16" version="1.1" xmlns="http://www.w3.org/2000/svg" xmlns:xlink="http://www.w3.org/1999/xlink">
    <!-- Generator: Sketch 51.3 (57544) - http://www.bohemiancoding.com/sketch -->
    <title>Artboard 5</title>
    <desc>Created with Sketch.</desc>
    <defs></defs>
    <g id="Artboard-5" stroke="none" stroke-width="1" fill="none" fill-rule="evenodd">
        <g id="full-size" fill="#FFFFFF" fill-rule="nonzero">
            <path d="M0.600645271,5.21313903 C0.932441719,5.21313903 1.20129054,4.9441761 1.20129054,4.61241778 L1.20129054,2.05110261 L5.06984652,5.91934692 C5.18717256,6.0366077 5.34085767,6.0952381 5.49454277,6.0952381 C5.64830796,6.0952381 5.80207315,6.0366077 5.9193191,5.91926682 C6.1538911,5.68466515 6.1538911,5.30428846 5.91923902,5.06976689 L2.05052287,1.20144248 L4.61207474,1.20144248 C4.9437911,1.20144248 5.21272001,0.932479558 5.21272001,0.600721241 C5.21272001,0.268962924 4.94387118,0 4.61207474,0 L0.600645271,0 C0.268848823,0 0,0.268962924 0,0.600721241 L0,4.61249788 C0,4.9441761 0.268848823,5.21313903 0.600645271,5.21313903 Z" id="Shape"></path>
            <path d="M15.4107952,10.8874429 C15.0853618,10.8874429 14.8216689,11.1512246 14.8216689,11.476592 L14.8216689,13.9886451 L10.9104987,10.0773237 C10.6803467,9.84724132 10.3073905,9.84724132 10.077317,10.0773237 C9.84724354,10.307406 9.84724354,10.6804552 10.077317,10.910459 L13.9884086,14.8217019 L11.4766098,14.8217019 C11.1511764,14.8217019 10.8874835,15.0854835 10.8874835,15.4108509 C10.8874835,15.7362183 11.1511764,16 11.4766098,16 L15.4108737,16 C15.7363071,16 16,15.7362183 16,15.4108509 L16,11.476592 C15.9999214,11.1512246 15.73615,10.8874429 15.4107952,10.8874429 Z" id="Shape"></path>
            <path d="M5.08943175,10.0773288 L1.1783456,13.9884645 L1.1783456,11.4765588 C1.1783456,11.1512003 0.914631853,10.8874258 0.589172799,10.8874258 C0.263713745,10.8874258 0,11.1512003 0,11.4765588 L0,15.4108671 C0,15.7362255 0.263713745,16 0.589172799,16 L4.52359019,16 C4.84897069,16 5.11276299,15.7362255 5.11276299,15.4108671 C5.11276299,15.0855086 4.84904925,14.8217341 4.52359019,14.8217341 L2.01151449,14.8217341 L5.9226792,10.9104413 C6.15277082,10.6803652 6.15277082,10.3073263 5.92260064,10.0772502 C5.69266614,9.84725271 5.31960192,9.84725271 5.08943175,10.0773288 Z" id="Shape"></path>
            <path d="M15.3992273,0 L11.3877218,0 C11.0558992,0 10.7870292,0.268945253 10.7870292,0.600681774 C10.7870292,0.932418295 11.0558992,1.20136355 11.3877218,1.20136355 L13.9489951,1.20136355 L10.0806948,5.06983426 C9.84610427,5.30442052 9.84610427,5.68477222 10.0807749,5.91935847 C10.1980301,6.03661155 10.3518074,6.0952381 10.5055046,6.0952381 C10.6592018,6.0952381 10.8129791,6.03653146 10.9303144,5.91927838 L14.7986147,2.05080767 L14.7986147,4.61211475 C14.7986147,4.94385127 15.0674848,5.21279652 15.3993074,5.21279652 C15.73113,5.21279652 16,4.94385127 16,4.61211475 L16,0.600681774 C15.9999199,0.268865162 15.7309698,0 15.3992273,0 Z" id="Shape"></path>
        </g>
    </g>
</svg>