<?xml version="1.0" encoding="UTF-8"?>
<svg width="24px" height="24px" viewBox="0 0 24 24" version="1.1" xmlns="http://www.w3.org/2000/svg" xmlns:xlink="http://www.w3.org/1999/xlink">
    <!-- Generator: Sketch 51.3 (57544) - http://www.bohemiancoding.com/sketch -->
    <title>Artboard</title>
    <desc>Created with Sketch.</desc>
    <defs></defs>
    <g id="Artboard" stroke="none" stroke-width="1" fill="none" fill-rule="evenodd">
        <g id="magnifying-glass" fill="#FFFFFF" fill-rule="nonzero">
            <path d="M23.9621739,22.9033043 L15.841087,14.7822174 C17.1674348,13.216 17.9716522,11.1942609 17.9716522,8.98582609 C17.9716522,4.03073913 13.9408696,-5.68434189e-14 8.98582609,-5.68434189e-14 C4.03078261,-5.68434189e-14 0,4.03073913 0,8.98582609 C0,13.940913 4.03073913,17.9716522 8.98582609,17.9716522 C11.1942609,17.9716522 13.216,17.1674348 14.7822174,15.841087 L22.9033043,23.9621739 C22.9033043,23.9621739 23.9621739,22.9033043 23.9621739,22.9033043 Z M8.98582609,16.474 C4.85708696,16.474 1.49765217,13.1145652 1.49765217,8.98582609 C1.49765217,4.85708696 4.85708696,1.49765217 8.98582609,1.49765217 C13.1145652,1.49765217 16.474,4.85708696 16.474,8.98582609 C16.474,13.1145652 13.1145652,16.474 8.98582609,16.474 Z" id="Shape"></path>
        </g>
    </g>
</svg>