<svg id="Capa_1" enable-background="new 0 0 512 512" height="512" viewBox="0 0 512 512" width="512" xmlns="http://www.w3.org/2000/svg">
    <g fill="#638fd6">
    <path d="m464.954 512v-24.169c0-33.036-7.509-64.641-22.318-93.937-7.406-14.651-16.624-28.44-27.299-41.005l-110.159 159.111z" />
    <path d="m69.759 393.117c-15.072 29.506-22.713 61.372-22.713 94.714v24.169h163.064l-112.528-160.186c-10.876 12.628-20.27 26.518-27.823 41.303z" />
    <path d="m244.836 512-37.179-193.321c-46.645-19.451-79.658-65.234-80.375-118.679h-70.308l63.801 84.55h-35.004z" />
    <path d="m456.416 200h-68.301c-.716 53.412-33.69 99.174-80.292 118.644l-37.173 193.356 156.727-227.45h-34.762z" />
    <path d="m276.655 327.285c-6.191.905-12.519 1.382-18.956 1.382-6.41 0-12.711-.473-18.877-1.371l18.916 112.492z" />
    <path d="m257.698 299.667c55.933 0 101.439-45.505 101.439-101.439 0-10.021-1.487-19.91-4.347-29.378h-194.184c-2.86 9.468-4.347 19.357-4.347 29.378.001 55.933 45.506 101.439 101.439 101.439z" />
    <path d="m402.254 138.887v-29.962h-48.414l-9.37-77.293c-1.598-13.186-10.282-24.368-22.663-29.18-12.38-4.815-26.336-2.432-36.42 6.212l-23.793 20.396c-2.256 1.934-5.532 1.935-7.792 0l-23.793-20.395c-10.084-8.645-24.042-11.026-36.421-6.213-12.381 4.812-21.065 15.994-22.663 29.18l-9.37 77.294h-48.413v29.962h289.112z" />
    </g>
</svg>