<svg id="Filled" height="512" viewBox="0 0 512 512" width="512" xmlns="http://www.w3.org/2000/svg"><path d="m368 488h-320v-432h416v336z" fill="#fbe36a"/><path d="m352 88h-192l16-40-16-24h192l-16 40z" fill="#dcdee0"/><path d="m368 488v-96h96z" fill="#f7cc38"/><path d="m40 56v432a8 8 0 0 0 8 8h320a8 8 0 0 0 5.657-2.343l96-96a7.982 7.982 0 0 0 2.324-5.657h.019v-336a8 8 0 0 0 -8-8h-112.984l8.412-21.029a8 8 0 0 0 -7.428-10.971h-192a8 8 0 0 0 -6.656 12.438l13.041 19.562h-118.385a8 8 0 0 0 -8 8zm336 412.687v-68.687h68.687zm-35.816-436.687-11.612 29.029a8 8 0 0 0 .772 7.409l7.708 11.562h-165.236l11.612-29.029a8 8 0 0 0 -.772-7.409l-7.708-11.562zm-284.184 32h104.984l-8.412 21.029a8 8 0 0 0 7.428 10.971h192a8 8 0 0 0 6.656-12.438l-13.041-19.562h110.385v320h-88a8 8 0 0 0 -8 8v88h-304z"/><path d="m192 168h128a8 8 0 0 0 0-16h-128a8 8 0 0 0 0 16z"/><path d="m112 216h288a8 8 0 0 0 0-16h-288a8 8 0 0 0 0 16z"/><path d="m112 264h288a8 8 0 0 0 0-16h-288a8 8 0 0 0 0 16z"/><path d="m112 312h288a8 8 0 0 0 0-16h-288a8 8 0 0 0 0 16z"/><path d="m280 344h-168a8 8 0 0 0 0 16h168a8 8 0 0 0 0-16z"/></svg>