<svg id="Bold" enable-background="new 0 0 24 24" height="512" viewBox="0 0 24 24" width="512" xmlns="http://www.w3.org/2000/svg"><path d="m9.822 15.405c-.747.204-1.431-.482-1.228-1.228l1.397-5.117 8.57-8.57c-.48-.307-1.046-.49-1.656-.49h-13.81c-1.706 0-3.095 1.389-3.095 3.095v13.549c0 .266.105.52.293.707l6.355 6.355c.188.189.442.294.707.294h9.549c1.707 0 3.096-1.389 3.096-3.096v-11.955l-5.06 5.06zm-2.465 6.183-4.943-4.943h4.964z"/><path d="m22.293.293c-.391-.391-1.024-.391-1.414 0l-9.546 9.546-1.061 3.889 3.889-1.061 9.546-9.546c.391-.391.391-1.024 0-1.414z"/></svg>