<svg id="Capa_1" enable-background="new 0 0 512 512" height="512" viewBox="0 0 512 512" width="512" xmlns="http://www.w3.org/2000/svg"><g><path d="m467 30h30v-30h-90v30h30v30h-45v91h120v-91h-45z"/><path d="m435.2 299.2-69.598 69.899c-14.402 14.101-33.001 21.901-53.101 21.901h-130.501v-30h127.5c24.901 0 44.5-20.101 44.5-45v-15h-163.899c-13.2 0-26.1 3.3-37.2 9.899l-152.901 82.201 77.399 118.9 94.102-61h165.901c19.799 0 38.699-7.8 52.798-21.901l121.8-121.8s-10.8-10.8-10.8-11.1c-17.999-17.699-47.999-14.7-66 3.001z"/><path d="m332 151h30v-60h-30c-33.091 0-60 26.909-60 60v30h60z"/><path d="m272 211h60v60h-60z"/></g></svg>