<svg width="172" height="172" fill="none" xmlns="http://www.w3.org/2000/svg"><path fill-rule="evenodd" clip-rule="evenodd" d="M0 97.223c1.445-2.797 4.058-3.69 7.676-3.686 42.982.056 85.964.032 128.946.03 3.358 0 5.738 1.302 6.486 3.546.697 2.09-.245 4.392-2.552 5.383-1.209.518-2.726.762-4.106.767-14.078.058-28.157.045-42.235.044-28.962-.001-57.923-.033-86.884.025-3.62.007-6.089-1.012-7.331-3.843v-2.266zM9.794 144.958v-34.281h121.834v34.211h-44.39c-.132-2.841-.04-5.7-.439-8.488-1.225-8.572-8.726-14.328-17.653-13.744-7.917.518-14.494 7.584-14.72 15.855-.057 2.084-.008 4.171-.008 6.447H9.794zM172 38.82c-3.144 3.365-6.169 6.854-9.477 10.05-2.074 2.006-5.065 1.592-7.279-.604-4.967-4.924-9.903-9.877-14.851-14.819-5.281-5.274-10.559-10.552-15.843-15.823-3.599-3.59-3.622-6.17-.069-9.72 1.538-1.537 3.032-3.122 4.63-4.595 1.275-1.174 2.678-2.211 4.025-3.309h2.827c1.404 1.12 2.927 2.121 4.194 3.379a5672.227 5672.227 0 0 1 28.58 28.56c1.217 1.224 2.181 2.698 3.263 4.057v2.823zM120.084 80.86l-3.575 3.502-2.62-4.343c-5.606-9.296-12.533-16.603-21.174-22.338l-4.34-2.88L92.023 51c.827-.863 2.818-2.954 5.27-5.53-7.445-3.762-16-6.027-25.512-6.052-30.158-.077-52.063 22.955-57.447 46.584H129c-.788-3.52-1.979-7.092-3.547-10.611-2.49 2.563-4.474 4.592-5.369 5.47z" fill="#fff"/><path fill-rule="evenodd" clip-rule="evenodd" d="M148.111 51.432c-1.371 1.356-2.732 2.901-4.298 4.203-1.977 1.642-4.079 1.262-6.095-.219-2.577 2.39-17.157 16.773-19.814 19.237-5.176-8.123-11.773-14.78-19.96-19.923 2.538-2.505 17.073-16.993 19.517-19.406-2.247-3.466-2.064-5.022.739-7.83 1.019-1.021 2.02-2.058 2.951-3.008l26.96 26.946zM78.326 144.958c.03-2.301.066-4.509-.053-6.705-.234-4.31-3.181-7.685-6.684-7.964-3.702-.295-7.21 2.31-7.709 6.449-.323 2.68-.208 5.435-.133 8.22h14.58zM85.385 157.221h3.727v-2.889h-3.727v2.889zm-66.258 13.836-2.332-4.348h-1.257v4.348h-5.313v-2.821h.997v-11.083h-.996v-2.821h5.312v9.194h1.227l2.808-4.167h4.094v2.821h-.682l-2.296 2.568 2.517 3.488h.756v2.821h-4.835zm53.931 0-2.853-8.877h-.83v-2.821h6.105v2.821h-1.086l1.438 5.376h.912l1.439-5.376h-1.086v-2.821h5.674v2.821h-.832l-2.785 8.877h-6.096zm11.24 0v-2.821h.996v-6.056h-.996v-2.821h5.312v8.877h.997v2.821h-6.309zm-54.546.317c-1.12 0-1.928-.33-2.47-1.01-.559-.699-.842-1.696-.842-2.96v-5.224h-.997v-2.821h5.313v6.981c0 .613.15 1.085.448 1.403.306.328.746.493 1.31.493.565 0 1.006-.165 1.312-.493.298-.318.449-.79.449-1.403v-4.16h-1.223v-2.821h5.539v8.877h.996v2.821h-5.312v-2.614l-.798 1.019c-1.007 1.287-2.225 1.912-3.725 1.912zm18.434-9.194c-.565 0-1.006.166-1.311.493-.298.317-.45.789-.45 1.403v2.264c0 .613.152 1.085.45 1.403.305.328.746.493 1.31.493.565 0 1.006-.165 1.311-.493.298-.318.45-.79.45-1.403v-2.264c0-.614-.152-1.086-.45-1.404-.305-.326-.746-.492-1.31-.492zm2.196 9.194c-.68 0-1.29-.167-1.81-.497a5.267 5.267 0 0 1-1.348-1.188l-.798-1.021v2.389h-5.313v-2.821h.997v-11.083h-.997v-2.821h5.313v7.416l.798-1.021c.344-.44.797-.84 1.348-1.188.52-.33 1.13-.498 1.81-.498 1.395 0 2.41.499 3.107 1.526.722 1.066 1.089 2.628 1.089 4.641s-.367 3.574-1.09 4.64c-.695 1.027-1.71 1.526-3.106 1.526zm12.024-10.009c-.564 0-1.005.166-1.31.492-.298.318-.449.791-.449 1.403v.718h3.52v-.718c0-.63-.153-1.108-.454-1.419-.306-.316-.746-.476-1.307-.476zm0 10.009c-2.017 0-3.605-.527-4.722-1.568-1.108-1.031-1.67-2.578-1.67-4.598s.562-3.567 1.67-4.599c1.117-1.04 2.706-1.568 4.722-1.568 1.983 0 3.419.508 4.269 1.508.868 1.021 1.31 2.315 1.31 3.843v1.185h-7.338v.582c0 .699.225 1.231.667 1.583.417.333 1.049.494 1.93.494.941 0 1.85-.071 2.7-.21a15.73 15.73 0 0 0 1.656-.357v2.743c-.482.223-1.144.432-1.975.622-.983.226-2.066.34-3.219.34zm36.03-9.194c-.565 0-1.006.166-1.312.492-.297.319-.448.791-.448 1.404v2.264c0 .613.15 1.085.448 1.403.306.328.747.493 1.311.493.565 0 1.006-.165 1.312-.493.297-.318.448-.79.448-1.403v-2.264c0-.613-.151-1.085-.448-1.403-.306-.327-.747-.493-1.312-.493zm0 9.194c-2.018 0-3.606-.527-4.723-1.568-1.108-1.03-1.67-2.578-1.67-4.598s.562-3.568 1.67-4.598c1.117-1.041 2.705-1.569 4.722-1.569 2.045 0 3.641.535 4.742 1.587 1.095 1.047 1.651 2.588 1.651 4.58 0 2.02-.562 3.567-1.669 4.598-1.118 1.041-2.707 1.568-4.724 1.568zm12.183 0c-1.12 0-1.929-.33-2.471-1.01-.559-.7-.842-1.696-.842-2.96v-5.224h-.997v-2.821h5.312v6.981c0 .613.151 1.085.449 1.403.306.328.747.493 1.311.493s1.006-.165 1.311-.493c.298-.318.449-.79.449-1.403v-4.16h-1.223v-2.821h5.539v8.877h.996v2.821h-5.312v-2.614l-.798 1.019c-1.007 1.287-2.225 1.912-3.724 1.912zm16.417 0c-1.736 0-3.435-.263-5.056-.782v-2.583h2.789c.063.515.39 1.314 1.814 1.314 1.507 0 1.669-.898 1.669-1.285 0-.454-.191-.819-.555-1.054-.287-.185-.744-.332-1.397-.449l-1.132-.204c-2.146-.383-3.188-1.557-3.188-3.591 0-1.173.429-2.055 1.311-2.697.913-.664 2.182-1.002 3.768-1.002 1.689 0 3.144.266 4.332.79v2.417h-2.564a1.225 1.225 0 0 0-.464-.823c-.282-.221-.676-.332-1.168-.332-1.425 0-1.579.819-1.579 1.171 0 .411.181.744.522.964.262.168.676.31 1.302.446l1.301.251c1.234.235 2.114.664 2.616 1.273.51.618.758 1.399.758 2.388 0 1.237-.412 2.15-1.26 2.791-.876.662-2.16.997-3.819.997z" fill="#fff"/></svg>