<svg width="190" height="30" fill="none" xmlns="http://www.w3.org/2000/svg"><path fill-rule="evenodd" clip-rule="evenodd" d="M134.202 13.39h4.374V10h-4.374v3.39zM56.446 29.627l-2.737-5.102h-1.475v5.102H46v-3.31h1.17V13.31H46V10h6.234v10.79h1.44l3.296-4.89h4.804v3.31h-.8l-2.695 3.013 2.954 4.094h.887v3.31h-5.674zm63.29 0-3.349-10.417h-.973V15.9h7.164v3.31h-1.275l1.689 6.31h1.07l1.688-6.31h-1.274V15.9h6.659v3.31h-.977l-3.268 10.417h-7.154zm13.191 0v-3.31h1.169V19.21h-1.169V15.9h6.234v10.417h1.169v3.31h-7.403zM68.915 30c-1.314 0-2.262-.388-2.899-1.185-.655-.821-.988-1.99-.988-3.474V19.21h-1.17V15.9h6.235v8.192c0 .72.177 1.273.526 1.646.359.385.876.58 1.538.58s1.18-.195 1.539-.58c.35-.373.527-.927.527-1.646V19.21h-1.436V15.9h6.5v10.417h1.17v3.31h-6.234V26.56l-.936 1.196C72.105 29.265 70.675 30 68.915 30zm21.632-10.79c-.662 0-1.18.195-1.538.579-.35.372-.527.926-.527 1.646v2.657c0 .72.177 1.274.528 1.647.357.384.875.578 1.537.578.663 0 1.18-.194 1.539-.579.349-.372.527-.926.527-1.646v-2.657c0-.72-.178-1.274-.528-1.647-.358-.383-.875-.578-1.538-.578zM93.125 30c-.799 0-1.514-.197-2.124-.583-.647-.41-1.178-.878-1.582-1.395l-.937-1.198v2.803h-6.234v-3.31h1.17V13.31h-1.17V10h6.234v8.703l.937-1.198c.403-.516.935-.986 1.582-1.395.61-.387 1.326-.583 2.124-.583 1.637 0 2.83.586 3.646 1.79.848 1.252 1.278 3.085 1.278 5.446 0 2.363-.43 4.195-1.278 5.446C95.954 29.414 94.762 30 93.125 30zm14.111-11.746c-.662 0-1.179.194-1.538.577-.349.374-.527.928-.527 1.647v.843h4.131v-.843c0-.74-.18-1.3-.532-1.666-.36-.37-.876-.558-1.534-.558zm0 11.746c-2.367 0-4.231-.619-5.542-1.84-1.3-1.21-1.96-3.026-1.96-5.397 0-2.37.66-4.186 1.96-5.396 1.311-1.221 3.175-1.84 5.542-1.84 2.326 0 4.011.595 5.009 1.769 1.02 1.199 1.537 2.717 1.537 4.51v1.39h-8.611v.683c0 .821.264 1.446.783 1.859.49.39 1.231.58 2.266.58 1.103 0 2.169-.084 3.167-.247a18.284 18.284 0 0 0 1.943-.42v3.22c-.564.261-1.341.506-2.317.73-1.154.265-2.424.399-3.777.399zm42.281-10.79c-.662 0-1.179.195-1.538.578-.35.374-.527.927-.527 1.647v2.657c0 .72.177 1.273.526 1.646.36.385.877.58 1.539.58.662 0 1.18-.195 1.539-.58.349-.373.526-.927.526-1.646v-2.657c0-.72-.177-1.273-.526-1.646-.359-.384-.877-.58-1.539-.58zm0 10.79c-2.367 0-4.231-.619-5.542-1.84-1.3-1.21-1.96-3.026-1.96-5.397 0-2.37.66-4.186 1.96-5.396 1.311-1.221 3.175-1.84 5.542-1.84 2.4 0 4.272.627 5.564 1.862 1.286 1.228 1.938 3.037 1.938 5.374 0 2.37-.659 4.187-1.959 5.397-1.311 1.221-3.176 1.84-5.543 1.84zm14.298 0c-1.314 0-2.264-.388-2.9-1.185-.656-.822-.988-1.991-.988-3.474V19.21h-1.169V15.9h6.233v8.192c0 .72.178 1.273.527 1.646.359.385.877.58 1.539.58.662 0 1.18-.195 1.538-.58.35-.373.527-.927.527-1.646V19.21h-1.435V15.9h6.499v10.417h1.17v3.31h-6.234V26.56l-.936 1.196c-1.183 1.51-2.612 2.245-4.371 2.245zm19.266 0c-2.037 0-4.031-.309-5.934-.918V26.05h3.274c.073.604.458 1.542 2.129 1.542 1.768 0 1.959-1.055 1.959-1.508 0-.534-.226-.961-.652-1.237-.337-.217-.874-.39-1.64-.527l-1.328-.24c-2.518-.448-3.742-1.827-3.742-4.214 0-1.377.504-2.412 1.539-3.164 1.072-.78 2.56-1.176 4.422-1.176 1.982 0 3.69.311 5.083.927v2.836h-3.008a1.44 1.44 0 0 0-.544-.966c-.332-.259-.794-.39-1.372-.39-1.672 0-1.852.961-1.852 1.375 0 .482.212.873.612 1.131.308.198.794.364 1.528.523l1.527.295c1.448.276 2.48.78 3.07 1.493.599.726.89 1.642.89 2.803 0 1.452-.484 2.524-1.48 3.276-1.027.776-2.535 1.17-4.481 1.17zM0 20.253c.295-.572.829-.754 1.567-.753 8.777.011 17.554.007 26.33.006.687 0 1.173.266 1.325.724.143.427-.05.897-.52 1.1a2.238 2.238 0 0 1-.84.156c-2.874.012-5.749.01-8.624.009-5.913 0-11.827-.007-17.741.005-.74.002-1.243-.207-1.497-.785v-.462zM2 30v-7h24.878v6.986h-9.064c-.027-.58-.009-1.164-.09-1.733-.25-1.75-1.782-2.926-3.605-2.807-1.616.106-2.96 1.549-3.005 3.237-.012.426-.002.852-.002 1.317H2zM35.122 8.327c-.642.687-1.26 1.4-1.935 2.052-.424.41-1.035.325-1.487-.123-1.014-1.006-2.022-2.017-3.032-3.026-1.079-1.077-2.156-2.155-3.235-3.231-.735-.733-.74-1.26-.014-1.985.314-.314.619-.638.945-.938.26-.24.547-.452.822-.676h.577c.287.229.598.433.856.69a1152.17 1152.17 0 0 1 5.837 5.832c.248.25.445.55.666.828v.577zM24.52 16.911l-.73.715-.534-.886c-1.145-1.899-2.56-3.39-4.324-4.562l-.886-.588.745-.776 1.076-1.13a11.52 11.52 0 0 0-5.21-1.235C8.5 8.433 4.027 13.136 2.927 17.96H26.34a11.524 11.524 0 0 0-.724-2.167c-.508.524-.913.938-1.096 1.117z" fill="#fff"/><path fill-rule="evenodd" clip-rule="evenodd" d="M30.244 10.902c-.28.277-.558.593-.878.858-.404.336-.833.258-1.244-.044-.527.488-3.504 3.425-4.046 3.928A12.939 12.939 0 0 0 20 11.576c.518-.512 3.486-3.47 3.985-3.963-.459-.708-.421-1.025.151-1.599.208-.208.413-.42.603-.614l5.505 5.502zM15.994 30c.006-.47.014-.92-.01-1.37-.049-.88-.65-1.568-1.366-1.625a1.468 1.468 0 0 0-1.574 1.316c-.066.548-.042 1.11-.027 1.679h2.977z" fill="#fff"/></svg>