<?xml version="1.0" encoding="utf-8"?>
    <svg version="1.1" id="Layer_1" xmlns="http://www.w3.org/2000/svg" xmlns:xlink="http://www.w3.org/1999/xlink" x="0px" y="0px" viewBox="0 0 122.88 122.88" style="enable-background:new 0 0 122.88 122.88" xml:space="preserve">
    <style type="text/css">.st0{fill-rule:evenodd;clip-rule:evenodd;}</style>
    <g fill="#EFFD55">
    <path class="st0" d="M79.7,31.87c-0.7-0.65-1.5-1-2.4-0.95c-0.9,0-1.7,0.35-2.35,1.05l-5.29,5.49L84.49,51.8l5.34-5.59 c0.65-0.65,0.9-1.5,0.9-2.4c0-0.9-0.35-1.75-1-2.35L79.7,31.87L79.7,31.87L79.7,31.87z M12.51,0h97.85c3.44,0,6.57,1.41,8.84,3.67 c2.27,2.27,3.67,5.4,3.67,8.84v97.85c0,3.44-1.41,6.57-3.67,8.84c-2.27,2.27-5.4,3.67-8.84,3.67H12.51c-3.44,0-6.57-1.41-8.84-3.67 c-2.27-2.27-3.67-5.4-3.67-8.84V12.51c0-3.44,1.41-6.57,3.67-8.84C5.94,1.41,9.07,0,12.51,0L12.51,0z M110.37,5.39H12.51 c-1.96,0-3.74,0.8-5.03,2.1c-1.29,1.29-2.1,3.08-2.1,5.03v97.85c0,1.96,0.8,3.74,2.1,5.03c1.29,1.29,3.08,2.1,5.03,2.1h97.85 c1.96,0,3.74-0.8,5.03-2.1c1.29-1.29,2.1-3.08,2.1-5.03V12.51c0-1.96-0.8-3.74-2.1-5.03C114.1,6.19,112.32,5.39,110.37,5.39 L110.37,5.39z M51.93,85.61c-1.95,0.65-3.95,1.25-5.89,1.9c-1.95,0.65-3.9,1.3-5.89,1.95c-4.64,1.5-7.19,2.35-7.74,2.5 c-0.55,0.15-0.2-2,0.95-6.49l3.7-14.13l0.3-0.32L51.93,85.61L51.93,85.61L51.93,85.61L51.93,85.61z M42.74,65.41l22.9-23.78 l14.83,14.28L57.33,79.99L42.74,65.41L42.74,65.41z"/></g></svg>
