<svg xmlns="http://www.w3.org/2000/svg" viewBox="0 0 122.88 122.88"><path d="M79.7 31.87c-.7-.65-1.5-1-2.4-.95-.9 0-1.7.35-2.35 1.05l-5.29 5.49L84.49 51.8l5.34-5.59c.65-.65.9-1.5.9-2.4 0-.9-.35-1.75-1-2.35L79.7 31.87zM12.51 0h97.85c3.44 0 6.57 1.41 8.84 3.67 2.27 2.27 3.67 5.4 3.67 8.84v97.85c0 3.44-1.41 6.57-3.67 8.84-2.27 2.27-5.4 3.67-8.84 3.67H12.51c-3.44 0-6.57-1.41-8.84-3.67C1.4 116.93 0 113.8 0 110.36V12.51c0-3.44 1.41-6.57 3.67-8.84C5.94 1.41 9.07 0 12.51 0zm97.86 5.39H12.51c-1.96 0-3.74.8-5.03 2.1a7.125 7.125 0 00-2.1 5.03v97.85c0 1.96.8 3.74 2.1 5.03a7.125 7.125 0 005.03 2.1h97.85c1.96 0 3.74-.8 5.03-2.1a7.125 7.125 0 002.1-5.03V12.51c0-1.96-.8-3.74-2.1-5.03a7.092 7.092 0 00-5.02-2.09zM51.93 85.61c-1.95.65-3.95 1.25-5.89 1.9-1.95.65-3.9 1.3-5.89 1.95-4.64 1.5-7.19 2.35-7.74 2.5-.55.15-.2-2 .95-6.49l3.7-14.13.3-.32 14.57 14.59zm-9.19-20.2l22.9-23.78 14.83 14.28-23.14 24.08-14.59-14.58z" fill-rule="evenodd" clip-rule="evenodd" fill="#EFFD55"/></svg>