<svg width="36" height="30" fill="none" xmlns="http://www.w3.org/2000/svg"><path fill-rule="evenodd" clip-rule="evenodd" d="M0 20.253c.295-.572.829-.754 1.567-.753 8.777.011 17.554.007 26.33.006.687 0 1.173.266 1.325.724.143.427-.05.897-.52 1.1a2.238 2.238 0 0 1-.84.156c-2.874.012-5.749.01-8.624.009-5.913 0-11.827-.007-17.741.005-.74.002-1.243-.207-1.497-.785v-.462zM2 30v-7h24.878v6.986h-9.064c-.027-.58-.009-1.164-.09-1.733-.25-1.75-1.782-2.926-3.605-2.807-1.616.106-2.96 1.549-3.005 3.237-.012.426-.002.852-.002 1.317H2zM35.122 8.327c-.642.687-1.26 1.4-1.935 2.052-.424.41-1.035.325-1.487-.123-1.014-1.006-2.022-2.017-3.032-3.026-1.079-1.077-2.156-2.155-3.235-3.231-.735-.733-.74-1.26-.014-1.985.314-.314.619-.638.945-.938.26-.24.547-.452.822-.676h.577c.287.229.598.433.856.69 1.953 1.937 3.898 3.881 5.837 5.832.248.25.445.55.666.828v.577zM24.52 16.911l-.73.715-.534-.886c-1.145-1.899-2.56-3.39-4.324-4.562l-.886-.588.745-.776 1.076-1.13a11.52 11.52 0 0 0-5.21-1.235C8.5 8.433 4.027 13.136 2.927 17.96H26.34a11.527 11.527 0 0 0-.724-2.167c-.508.524-.913.938-1.096 1.117z" fill="#fff"/><path fill-rule="evenodd" clip-rule="evenodd" d="M30.244 10.902c-.28.277-.558.593-.878.858-.404.336-.833.258-1.244-.044-.527.488-3.504 3.425-4.046 3.928A12.94 12.94 0 0 0 20 11.576c.518-.512 3.486-3.47 3.985-3.963-.459-.708-.421-1.025.151-1.599.208-.208.413-.42.603-.614l5.505 5.502zM15.994 30c.006-.47.014-.92-.01-1.37-.049-.88-.65-1.568-1.366-1.625a1.468 1.468 0 0 0-1.574 1.316c-.066.548-.042 1.11-.027 1.679h2.977z" fill="#fff"/></svg>
